<svg xmlns="http://www.w3.org/2000/svg" width="24" height="24" viewBox="0 0 24 24" fill="none">
<path d="M0.865645 4.72337C1.70524 9.96312 6.32043 13.9703 11.888 13.9703C17.3992 13.9703 21.9772 10.0438 22.8836 4.88205C22.9997 4.39743 23.0477 4.01037 23.033 3.67876C23.033 3.29884 22.7561 3.00391 22.3721 3.00391H21.7492H2.13147H1.4135C1.0298 3.00391 0.752983 3.2984 0.752567 3.6779C0.751711 3.67787 0.750855 3.67784 0.75 3.6778C0.750524 3.68629 0.751057 3.69478 0.7516 3.70326C0.741586 3.9921 0.77845 4.32309 0.865645 4.72337L0.865645 4.72337Z" fill="#2D81F7"/>
<path d="M17.366 20.6832C16.9462 18.0634 14.6386 16.0598 11.8548 16.0598C9.09925 16.0598 6.81023 18.023 6.35701 20.6039C6.29898 20.8462 6.27497 21.0397 6.28231 21.2055C6.28231 21.3955 6.42078 21.543 6.61278 21.543H6.92423H16.7331H17.0921C17.2839 21.543 17.4223 21.3957 17.4225 21.206C17.423 21.206 17.4234 21.206 17.4238 21.206C17.4236 21.2018 17.4233 21.1975 17.423 21.1933C17.428 21.0489 17.4096 20.8834 17.366 20.6832Z" fill="#08BD80"/>
</svg>